<svg xmlns="http://www.w3.org/2000/svg" viewBox="0 0 1222.99 906.65"><defs><style>.cls-1{fill:#1c1d1b;}.cls-2{fill:#f80d0f;}</style></defs><g id="Layer_2" data-name="Layer 2"><g id="Layer_2-2" data-name="Layer 2"><path class="cls-1" d="M139,.2,296.2.08c6.31,0,12.57,2.75,16,8,9.26,14.22,18.57,31.69,29.92,52.08a4.33,4.33,0,0,1-3.78,6.31l-76.7,2a5.26,5.26,0,0,0-4.48,7.79L500.26,519.6a4.93,4.93,0,0,0,8.66,0l38-69.66a3.5,3.5,0,0,1,6.14,0l36,64.95a7.06,7.06,0,0,1,0,6.79L506,674.31a2.81,2.81,0,0,1-4.93,0L136.76,4A2.54,2.54,0,0,1,139,.2Z"/><path class="cls-1" d="M1098.15.2,940.94.08c-6.31,0-12.71,2.66-16,8C915.45,23.54,906.15,40.71,895,60.2a4.32,4.32,0,0,0,3.78,6.31l76.7,2A5.26,5.26,0,0,1,980,76.32L736.88,519.6a4.94,4.94,0,0,1-8.67,0l-38-69.66a3.51,3.51,0,0,0-6.15,0l-36,64.95a7.09,7.09,0,0,0,0,6.79l83.13,152.66a2.81,2.81,0,0,0,4.93,0L1100.38,4A2.54,2.54,0,0,0,1098.15.2Z"/><path class="cls-2" d="M736.44,105.2a3.25,3.25,0,0,0,2.59,5.22l58.87-.17a16.53,16.53,0,0,0,11.62-4.77l14.31-14.09A35.55,35.55,0,0,0,830,83.27L871.8,6a4.05,4.05,0,0,0-3.56-6H366.64a3.45,3.45,0,0,0-3,5.13L548.94,339.78a3.52,3.52,0,0,0,6.19-.07l31.34-54.88a23.31,23.31,0,0,0,.33-22.54L487.37,80.75a6.72,6.72,0,0,1,5.89-10l250.17.06a5.36,5.36,0,0,1,5.36,5.36v10a8.18,8.18,0,0,1-1.67,5Z"/><path class="cls-2" d="M677.88,148.29l-93.32,1.53a4.23,4.23,0,0,0-3.46,6.66l18.52,35.34c6.65,12.38,20.17,29,35.11,28.47l28.86,1a5.05,5.05,0,0,1,4.15,7.66l-11.56,19.19L579.65,389.79a11.82,11.82,0,0,0,0,11.28l36.13,66.15a2.19,2.19,0,0,0,3.85,0L789.4,154.42a3.75,3.75,0,0,0-3.27-5.53Z"/></g><g id="Layer_3" data-name="Layer 3"><path class="cls-1" d="M75.55,869.22l-15.1,26.63a2.62,2.62,0,0,1-4.68-.23L.23,769.94a2.62,2.62,0,0,1,2.46-3.68l30.74.71a2.63,2.63,0,0,1,2.37,1.64l39.9,98.33A2.65,2.65,0,0,1,75.55,869.22Z"/><path class="cls-1" d="M72.62,800.63,89,774.37a1.67,1.67,0,0,1,3,.29l18,47.08a4.61,4.61,0,0,0,8.69-.48L133,767.4a1.66,1.66,0,0,1,1.61-1.24H165.5a1.66,1.66,0,0,1,1.53,2.31L113.57,895.81a1.67,1.67,0,0,1-3.08,0l-38-93.65A1.68,1.68,0,0,1,72.62,800.63Z"/><rect class="cls-1" x="193.11" y="766.33" width="32.85" height="27.23" rx="5.79"/><path class="cls-1" d="M226,899.28a3.08,3.08,0,0,1-3.05,3.08l-15.88.17a14,14,0,0,1-14-14l1.19-64.67a2.63,2.63,0,0,1,2.63-2.59h26.43A2.64,2.64,0,0,1,226,824Z"/><path class="cls-1" d="M301.25,899.48l-44.61,1.89a2.48,2.48,0,0,1-2.59-2.48v-21a2.48,2.48,0,0,1,2.48-2.48H289.9l.3,0c23.63-2.51,21.41-22.85,16.06-31.13-11-17-35.73-43.64-42.38-57.19a24.36,24.36,0,0,1-2.48-10.81l-.15-8a2.5,2.5,0,0,1,2.58-2.41l31.41,1.35c3.11,37,39,47.87,46.64,79.83a69.12,69.12,0,0,1,0,20.51c-3.93,15.39-10.74,26.07-29.72,30.53A58.13,58.13,0,0,1,301.25,899.48Z"/><path class="cls-1" d="M375.44,767.47l21.74.16a8.1,8.1,0,0,1,8,7.82l1.4,42.5a4,4,0,0,0,4,3.85l35.28-.51a7.86,7.86,0,0,1,8,7.85V839a11.57,11.57,0,0,1-11.53,11.56l-31.8.09a4.85,4.85,0,0,0-4.84,4.86v37.27a8.53,8.53,0,0,1-8.59,8.52l-15.65-.12a7.36,7.36,0,0,1-7.31-7.28l-1.42-123.73A2.68,2.68,0,0,1,375.44,767.47Z"/><rect class="cls-2" x="614.82" y="819.79" width="41.87" height="31.81" rx="6.03"/><path class="cls-2" d="M653.55,863.15a50.64,50.64,0,0,1-14.48,12.29c-58.21,20.13-77.25-55-38.74-76.11a25.83,25.83,0,0,1,11.23-3.09l39.85-1.71a4.89,4.89,0,0,0,4.68-4.89V770.12a4.9,4.9,0,0,0-4.89-4.9H619.12a76.79,76.79,0,0,0-53.9,22,62.67,62.67,0,0,0-16.43,29.41c-13.33,52.88,28.08,98.25,81.94,88.8,10.07-2.42,20-5.27,25.36-11.4l-.38-30.11A1.21,1.21,0,0,0,653.55,863.15Z"/><path class="cls-2" d="M685.79,768v23.83a2.72,2.72,0,0,0,2.73,2.72h48.34c11.34.66,15.78,14.91,6.18,22.71a15.49,15.49,0,0,1-9.81,3.33H688.52a2.73,2.73,0,0,0-2.73,2.73v24.17a2.72,2.72,0,0,0,2.73,2.72H726.9c8.46,0,14.08,3.4,13.79,14l.23,27.45c.26,8.17,5.09,10.58,10.81,10.72l12,0c7.57-.54,10-1.79,11.47-4.92a12.14,12.14,0,0,0,1.09-4.67l.22-4.62V868.81a40.85,40.85,0,0,0-2.81-15.19c-5.38-13.42-13.68-12.43-16.06-16.44A2.2,2.2,0,0,1,759,834c24.32-8,38.64-47.36-1.69-64.45a56.85,56.85,0,0,0-22.16-4.35H688.52A2.73,2.73,0,0,0,685.79,768Z"/><path class="cls-2" d="M881.26,762.93c-38.85,0-70.33,32.17-70.33,71.86s31.48,71.86,70.33,71.86,70.32-32.17,70.32-71.86S920.09,762.93,881.26,762.93Zm-1,118.25c-20.77,0-37.6-20.6-37.6-46s16.83-46,37.6-46,37.61,20.61,37.61,46S901,881.18,880.24,881.18Z"/><path class="cls-2" d="M983,868.05V771.31a5.41,5.41,0,0,1,5.41-5.4h25.19a5.4,5.4,0,0,1,5.4,5.4v94.43a9,9,0,0,0,9,9l19.31,1.17a11,11,0,0,0,11-10.92l-.48-93a6.2,6.2,0,0,1,6.2-6.22h22.56a6.19,6.19,0,0,1,6.19,6.19V888.4a14.24,14.24,0,0,1-14.38,14.24l-61.72-.58A34,34,0,0,1,983,868.05Z"/><path class="cls-2" d="M1134.73,902.68h16.8a8.13,8.13,0,0,0,8.13-8.13v-40a5.62,5.62,0,0,1,5.62-5.62h17.2a40.34,40.34,0,0,0,23.2-7.09c20.23-14.24,23.65-44,5.35-62.83A44.64,44.64,0,0,0,1179,765.78H1135.6a9.13,9.13,0,0,0-9.13,9.13v14.23a4.08,4.08,0,0,0,4.09,4.08h42.89c20.94.26,21.45,28.86,0,28.09h-42.89a4.09,4.09,0,0,0-4.09,4.08v69A8.26,8.26,0,0,0,1134.73,902.68Z"/></g></g></svg>